<?xml version="1.0" encoding="UTF-8" standalone="no"?>
<svg
   width="98"
   height="98"
   version="1.1"
   id="svg4"
   sodipodi:docname="github-mark.svg"
   inkscape:version="1.2.2 (b0a8486541, 2022-12-01)"
   xmlns:inkscape="http://www.inkscape.org/namespaces/inkscape"
   xmlns:sodipodi="http://sodipodi.sourceforge.net/DTD/sodipodi-0.dtd"
   xmlns="http://www.w3.org/2000/svg"
   xmlns:svg="http://www.w3.org/2000/svg">
  <defs
     id="defs8" />
  <sodipodi:namedview
     id="namedview6"
     pagecolor="#505050"
     bordercolor="#ffffff"
     borderopacity="1"
     inkscape:showpageshadow="0"
     inkscape:pageopacity="0"
     inkscape:pagecheckerboard="1"
     inkscape:deskcolor="#505050"
     showgrid="false"
     inkscape:zoom="6.013916"
     inkscape:cx="38.660334"
     inkscape:cy="59.694881"
     inkscape:window-width="1920"
     inkscape:window-height="1011"
     inkscape:window-x="0"
     inkscape:window-y="0"
     inkscape:window-maximized="1"
     inkscape:current-layer="svg4" />
  <path
     fill-rule="evenodd"
     clip-rule="evenodd"
     d="m 49.029351,14.119574 c -19.631057,0 -35.500858,15.986795 -35.500858,35.76464 0,15.809487 10.168328,29.191888 24.274495,33.928339 1.763634,0.35607 2.409646,-0.769546 2.409646,-1.7164 0,-0.829134 -0.05813,-3.67115 -0.05813,-6.63234 -9.875479,2.132057 -11.931962,-4.263388 -11.931962,-4.263388 -1.587053,-4.14494 -3.938565,-5.210242 -3.938565,-5.210242 -3.23224,-2.190917 0.235442,-2.190917 0.235442,-2.190917 3.585402,0.236895 5.466757,3.671149 5.466757,3.671149 3.173378,5.447137 8.286973,3.908045 10.344183,2.960464 0.293575,-2.309365 1.234616,-3.908045 2.233791,-4.796038 -7.876403,-0.829134 -16.163376,-3.908045 -16.163376,-17.645789 0,-3.908044 1.409744,-7.105403 3.643535,-9.592076 -0.352436,-0.887994 -1.587052,-4.55987 0.353163,-9.474356 0,0 2.997524,-0.947581 9.756305,3.671149 a 34.131807,34.131807 0 0 1 8.875578,-1.184476 c 2.997524,0 6.053182,0.41493 8.874851,1.184476 6.759508,-4.61873 9.757032,-3.671149 9.757032,-3.671149 1.940215,4.914486 0.704872,8.586362 0.352436,9.474356 2.292652,2.486673 3.644263,5.684032 3.644263,9.592076 0,13.737744 -8.286974,16.757068 -16.222237,17.645789 1.293477,1.124889 2.409646,3.256219 2.409646,6.631613 0,4.796038 -0.05813,8.645222 -0.05813,9.828972 0,0.947581 0.646738,2.073197 2.409646,1.717854 C 74.30302,79.075375 84.471349,65.693701 84.471349,49.884214 84.529482,30.106369 68.601548,14.119574 49.029351,14.119574 Z"
     fill="#24292f"
     id="path2"
     style="fill:#000000;stroke-width:0.726672" />
</svg>
